Coordinates
nRows=257
nColumns=2
inDegrees=yes
endheader
time	ankle_angle_r	
3.19355	 -5.390611	
3.22681	 -5.374975	
3.26008	 -5.369802	
3.29335	 -5.370048	
3.32661	 -5.368591	
3.35988	 -5.365768	
3.39315	 -5.363829	
3.42641	 -5.363056	
3.45968	 -5.360157	
3.49294	 -5.353596	
3.52621	 -5.347431	
3.55948	 -5.342369	
3.59274	 -5.335556	
3.62601	 -5.330180	
3.65927	 -5.331170	
3.69254	 -5.337049	
3.72581	 -5.343804	
3.75907	 -5.349230	
3.79234	 -5.351930	
3.8256	 -5.350821	
3.85887	 -5.344644	
3.89214	 -5.334498	
3.9254	 -5.325780	
3.95867	 -5.321712	
3.99194	 -5.320088	
4.0252	 -5.315383	
4.05847	 -5.302859	
4.09173	 -5.287918	
4.125	 -5.280222	
4.15827	 -5.277327	
4.19153	 -5.272751	
4.2248	 -5.269897	
4.25806	 -5.272589	
4.29133	 -5.276769	
4.3246	 -5.277292	
4.35786	 -5.271544	
4.39113	 -5.260735	
4.4244	 -5.252071	
4.45766	 -5.251921	
4.49093	 -5.259160	
4.52419	 -5.267767	
4.55746	 -5.272325	
4.59073	 -5.273100	
4.62399	 -5.273827	
4.65726	 -5.276719	
4.69052	 -5.285048	
4.72379	 -5.299236	
4.75706	 -5.309664	
4.79032	 -5.309336	
4.82359	 -5.306740	
4.85685	 -5.313780	
4.89012	 -5.330818	
4.92339	 -5.346966	
4.95665	 -5.350974	
4.98992	 -5.345142	
5.02319	 -5.341788	
5.05645	 -5.345336	
5.08972	 -5.351718	
5.12298	 -5.358511	
5.15625	 -5.365843	
5.18952	 -5.375483	
5.22278	 -5.386854	
5.25605	 -5.394413	
5.28931	 -5.396903	
5.32258	 -5.398967	
5.35585	 -5.400764	
5.38911	 -5.397406	
5.42238	 -5.386140	
5.45565	 -5.368537	
5.48891	 -5.349407	
5.52218	 -5.333893	
5.55544	 -5.324734	
5.58871	 -5.322774	
5.62198	 -5.324817	
5.65524	 -5.324463	
5.68851	 -5.320625	
5.72177	 -5.316666	
5.75504	 -5.312793	
5.78831	 -5.308001	
5.82157	 -5.303286	
5.85484	 -5.300566	
5.8881	 -5.303046	
5.92137	 -5.310563	
5.95464	 -5.315149	
5.9879	 -5.310692	
6.02117	 -5.301754	
6.05444	 -5.297547	
6.0877	 -5.302437	
6.12097	 -5.313184	
6.15423	 -5.324579	
6.1875	 -5.336503	
6.22077	 -5.350075	
6.25403	 -5.361050	
6.2873	 -5.366448	
6.32056	 -5.370609	
6.35383	 -5.378683	
6.3871	 -5.391182	
6.42036	 -5.402474	
6.45363	 -5.403813	
6.4869	 -5.394766	
6.52016	 -5.385018	
6.55343	 -5.382457	
6.58669	 -5.386221	
6.61996	 -5.386834	
6.65323	 -5.376228	
6.68649	 -5.361341	
6.71976	 -5.354559	
6.75302	 -5.355831	
6.78629	 -5.358470	
6.81956	 -5.359628	
6.85282	 -5.357542	
6.88609	 -5.352376	
6.91935	 -5.346754	
6.95262	 -5.338734	
6.98589	 -5.324848	
7.01915	 -5.307778	
7.05242	 -5.294899	
7.08569	 -5.292395	
7.11895	 -5.298308	
7.15222	 -5.303716	
7.18548	 -5.302484	
7.21875	 -5.294755	
7.25202	 -5.285272	
7.28528	 -5.280850	
7.31855	 -5.283347	
7.35181	 -5.287895	
7.38508	 -5.290381	
7.41835	 -5.289659	
7.45161	 -5.284616	
7.48488	 -5.275899	
7.51815	 -5.267531	
7.55141	 -5.264703	
7.58468	 -5.269345	
7.61794	 -5.276555	
7.65121	 -5.280472	
7.68448	 -5.281279	
7.71774	 -5.281476	
7.75101	 -5.283052	
7.78427	 -5.288139	
7.81754	 -5.297241	
7.85081	 -5.308547	
7.88407	 -5.317265	
7.91734	 -5.319033	
7.9506	 -5.316377	
7.98387	 -5.316224	
8.01714	 -5.321354	
8.0504	 -5.328007	
8.08367	 -5.331691	
8.11694	 -5.332168	
8.1502	 -5.332750	
8.18347	 -5.334746	
8.21673	 -5.334476	
8.25	 -5.330570	
8.28327	 -5.327477	
8.31653	 -5.328288	
8.3498	 -5.333062	
8.38306	 -5.340550	
8.41633	 -5.345374	
8.4496	 -5.344033	
8.48286	 -5.341083	
8.51613	 -5.339842	
8.5494	 -5.339832	
8.58266	 -5.341440	
8.61593	 -5.341813	
8.64919	 -5.338924	
8.68246	 -5.338434	
8.71573	 -5.345412	
8.74899	 -5.357258	
8.78226	 -5.366438	
8.81552	 -5.366808	
8.84879	 -5.359512	
8.88206	 -5.351222	
8.91532	 -5.348262	
8.94859	 -5.352462	
8.98185	 -5.358136	
9.01512	 -5.358740	
9.04839	 -5.358081	
9.08165	 -5.362724	
9.11492	 -5.368846	
9.14819	 -5.370481	
9.18145	 -5.370155	
9.21472	 -5.373312	
9.24798	 -5.379453	
9.28125	 -5.381296	
9.31452	 -5.375559	
9.34778	 -5.370378	
9.38105	 -5.371127	
9.41431	 -5.370406	
9.44758	 -5.363216	
9.48085	 -5.355613	
9.51411	 -5.353417	
9.54738	 -5.356754	
9.58065	 -5.363145	
9.61391	 -5.368224	
9.64718	 -5.369504	
9.68044	 -5.369207	
9.71371	 -5.369635	
9.74698	 -5.370211	
9.78024	 -5.369575	
9.81351	 -5.367619	
9.84677	 -5.362950	
9.88004	 -5.352126	
9.91331	 -5.338001	
9.94657	 -5.329031	
9.97984	 -5.325051	
10.0131	 -5.318239	
10.0464	 -5.307980	
10.0796	 -5.300264	
10.1129	 -5.296695	
10.1462	 -5.295348	
10.1794	 -5.295207	
10.2127	 -5.295043	
10.246	 -5.295824	
10.2792	 -5.299353	
10.3125	 -5.301986	
10.3458	 -5.300163	
10.379	 -5.296445	
10.4123	 -5.294152	
10.4456	 -5.293641	
10.4788	 -5.292918	
10.5121	 -5.290405	
10.5454	 -5.288473	
10.5786	 -5.289589	
10.6119	 -5.292944	
10.6452	 -5.298673	
10.6784	 -5.306819	
10.7117	 -5.315883	
10.745	 -5.327059	
10.7782	 -5.340427	
10.8115	 -5.351813	
10.8448	 -5.357799	
10.878	 -5.356045	
10.9113	 -5.347500	
10.9446	 -5.338693	
10.9778	 -5.333930	
11.0111	 -5.333854	
11.0444	 -5.337934	
11.0776	 -5.342604	
11.1109	 -5.347677	
11.1442	 -5.355300	
11.1774	 -5.360156	
11.2107	 -5.356905	
11.244	 -5.346965	
11.2772	 -5.331948	
11.3105	 -5.316100	
11.3437	 -5.309363	
11.377	 -5.314309	
11.4103	 -5.319343	
11.4435	 -5.312565	
11.4768	 -5.294999	
11.5101	 -5.277998	
11.5433	 -5.270387	
11.5766	 -5.270354	
11.6099	 -5.272455	
11.6431	 -5.275357	
11.6764	 -5.277868	
11.7097	 -5.278136	
